<?xml version="1.0" encoding="iso-8859-1"?>
<!-- Generator: Adobe Illustrator 27.4.0, SVG Export Plug-In . SVG Version: 6.00 Build 0)  -->
<svg version="1.1" id="Layer_1" xmlns="http://www.w3.org/2000/svg" xmlns:xlink="http://www.w3.org/1999/xlink" x="0px" y="0px"
	 viewBox="0 0 200 200" style="enable-background:new 0 0 200 200;" xml:space="preserve">
<g>
	<g>
		<defs>
			<path id="SVGID_1_" d="M44.749,41.949c2.492-4.217,10.433-17.266,26.626-25.442c18.587-9.385,42.317-9.456,60.351,1.183
				c12.792,7.547,18.879,18.217,28.401,34.909c6.032,10.575,5.114,11.832,16.567,39.051c13.096,31.124,15.872,33.224,16.567,43.193
				c0.269,3.865,1.922,27.57-12.425,42.009c-15.766,15.868-33,2.578-86.977,10.65c-29.508,4.413-38.859,10.554-55.026,4.142
				c-1.254-0.497-26.503-10.917-30.767-32.542c-4.139-20.989,16.653-26.349,26.034-63.31C40.613,70.127,33.61,60.803,44.749,41.949z
				"/>
		</defs>
		<clipPath id="SVGID_00000073718816608679492010000009116131926328766124_">
			<use xlink:href="#SVGID_1_"  style="overflow:visible;"/>
		</clipPath>
		<g style="clip-path:url(#SVGID_00000073718816608679492010000009116131926328766124_);">
			<g>
				<defs>
					<rect id="SVGID_00000118395942815631449990000015664181427824543106_" x="2.523" y="4.583" width="195.915" height="194.83"/>
				</defs>
				<clipPath id="SVGID_00000044858600480393978480000010875498489547278496_">
					<use xlink:href="#SVGID_00000118395942815631449990000015664181427824543106_"  style="overflow:visible;"/>
				</clipPath>
				<g style="clip-path:url(#SVGID_00000044858600480393978480000010875498489547278496_);">
					
						<image style="overflow:visible;" width="409" height="407" xlink:href="BD52DE4F2C053C03.jpg"  transform="matrix(0.48 0 0 0.48 2.4 4.32)">
					</image>
				</g>
			</g>
		</g>
	</g>
	<path style="fill:none;stroke:#231F20;stroke-width:5;stroke-miterlimit:10;" d="M44.749,41.949
		c2.492-4.217,10.433-17.266,26.626-25.442c18.587-9.385,42.317-9.456,60.351,1.183c12.792,7.547,18.879,18.217,28.401,34.909
		c6.032,10.575,5.114,11.832,16.567,39.051c13.096,31.124,15.872,33.224,16.567,43.193c0.269,3.865,1.922,27.57-12.425,42.009
		c-15.766,15.868-33,2.578-86.977,10.65c-29.508,4.413-38.859,10.554-55.026,4.142c-1.254-0.497-26.503-10.917-30.767-32.542
		c-4.139-20.989,16.653-26.349,26.034-63.31C40.613,70.127,33.61,60.803,44.749,41.949z"/>
</g>
<g>
	<g>
		<defs>
			<path id="SVGID_00000091011773461405374420000008641555857703898797_" d="M85.947,62.851c-1.011,0.004-1.967,3.129-1.866,5.598
				c0.18,4.412,3.783,6.93,4.852,6.464C90.673,74.155,87.956,62.842,85.947,62.851z"/>
		</defs>
		<clipPath id="SVGID_00000158026415420294933990000002352111320962517376_">
			<use xlink:href="#SVGID_00000091011773461405374420000008641555857703898797_"  style="overflow:visible;"/>
		</clipPath>
		<g style="clip-path:url(#SVGID_00000158026415420294933990000002352111320962517376_);">
			<g>
				<defs>
					<rect id="SVGID_00000124848533113537863550000010674552494948933309_" x="79.075" y="57.851" width="15.434" height="22.118"/>
				</defs>
				<clipPath id="SVGID_00000062910472628615220200000000518971088512198294_">
					<use xlink:href="#SVGID_00000124848533113537863550000010674552494948933309_"  style="overflow:visible;"/>
				</clipPath>
				<g style="clip-path:url(#SVGID_00000062910472628615220200000000518971088512198294_);">
					
						<image style="overflow:visible;" width="33" height="47" xlink:href="BD52DE4F2C053C01.jpg"  transform="matrix(0.48 0 0 0.48 78.72 57.6)">
					</image>
				</g>
			</g>
		</g>
	</g>
	<path style="fill:none;stroke:#231F20;stroke-width:5;stroke-miterlimit:10;" d="M85.947,62.851
		c-1.011,0.004-1.967,3.129-1.866,5.598c0.18,4.412,3.783,6.93,4.852,6.464C90.673,74.155,87.956,62.842,85.947,62.851z"/>
</g>
<path style="fill:#FFFFFF;stroke:#231F20;stroke-width:5;stroke-miterlimit:10;" d="M123.132,57.781
	c-1.041,0.291,0.478,4.451,0.7,6.257c0.369,3.017,1.9,5.398,2.578,5.279c0.669-0.117,0.996-3.559,0-6.58
	C125.817,60.94,124.208,57.48,123.132,57.781z"/>
</svg>
