<?xml version="1.0" encoding="utf-8"?>
<!-- Generator: Adobe Illustrator 27.4.0, SVG Export Plug-In . SVG Version: 6.00 Build 0)  -->
<svg version="1.1" xmlns="http://www.w3.org/2000/svg" xmlns:xlink="http://www.w3.org/1999/xlink" x="0px" y="0px"
	 viewBox="0 0 200 200" style="enable-background:new 0 0 200 200;" xml:space="preserve">
<style type="text/css">
	.st0{display:none;}
	.st1{display:inline;}
	.st2{clip-path:url(#SVGID_00000176043714125654314580000001770837127016174987_);}
	.st3{clip-path:url(#SVGID_00000119799390058324361980000008954838880526268055_);}
	.st4{fill:none;stroke:#231F20;stroke-width:5;stroke-miterlimit:10;}
	.st5{clip-path:url(#SVGID_00000079482299294493449240000015134737297612266888_);}
	.st6{clip-path:url(#SVGID_00000086684796090568418100000001938541121362543803_);}
	.st7{display:inline;fill:#FFFFFF;stroke:#231F20;stroke-width:5;stroke-miterlimit:10;}
	.st8{clip-path:url(#SVGID_00000083794028289318136990000007850888368236163976_);}
	.st9{clip-path:url(#SVGID_00000126281260863251296470000018359924066193731986_);}
	.st10{fill:none;stroke:#000000;stroke-width:5;stroke-miterlimit:10;}
	.st11{clip-path:url(#SVGID_00000052808284831838889080000007159892304074619569_);}
	.st12{clip-path:url(#SVGID_00000070109038362662501050000002038392328009664941_);}
	.st13{clip-path:url(#SVGID_00000070831481839668743460000015713067071751001220_);}
	.st14{clip-path:url(#SVGID_00000128456349986327581780000007580317103650187904_);}
	.st15{clip-path:url(#SVGID_00000053534133161630112550000017513940963217943725_);}
	.st16{clip-path:url(#SVGID_00000177459626861433292560000004177694942869184896_);}
	.st17{clip-path:url(#SVGID_00000085215299995843943950000011910580857601677440_);}
	.st18{clip-path:url(#SVGID_00000176752062280336881060000005304886831268445090_);}
	.st19{clip-path:url(#SVGID_00000046310067975201414010000016360968613411500702_);}
	.st20{clip-path:url(#SVGID_00000066496288579678684820000016553787654534188169_);}
	.st21{clip-path:url(#SVGID_00000033328628942700043030000007488136637099730818_);}
	.st22{clip-path:url(#SVGID_00000031925919713030770240000005825809887607325875_);}
	.st23{clip-path:url(#SVGID_00000134221611996618169060000007521371772896679832_);}
	.st24{clip-path:url(#SVGID_00000170272522176106931720000017693241453037367227_);}
	.st25{clip-path:url(#SVGID_00000165192658910288612650000010928833667468367009_);}
	.st26{clip-path:url(#SVGID_00000152953882259295008130000004799194824875747713_);}
	.st27{clip-path:url(#SVGID_00000036218872948670104100000000973263678793434022_);}
	.st28{clip-path:url(#SVGID_00000172398769529381015600000016446717326598517435_);}
	.st29{fill:#FFFFFF;stroke:#231F20;stroke-width:5;stroke-miterlimit:10;}
	.st30{clip-path:url(#SVGID_00000139998107850215265100000010833154344743089542_);}
	.st31{clip-path:url(#SVGID_00000123420461932280021600000001507923537929353612_);}
	.st32{clip-path:url(#SVGID_00000160149910833102440210000004828130395983609740_);}
</style>
<g id="Layer_1" class="st0">
	<g id="Layer_1_00000035503417152095765280000001323322380833421443_">
		<g class="st1">
			<g>
				<g>
					<g>
						<defs>
							<path id="SVGID_1_" d="M44.7,41.9c2.5-4.2,10.4-17.3,26.6-25.4c18.6-9.4,42.3-9.5,60.4,1.2c12.8,7.5,18.9,18.2,28.4,34.9
								c6,10.6,5.1,11.8,16.6,39.1c13.1,31.1,15.9,33.2,16.6,43.2c0.3,3.9,1.9,27.6-12.4,42c-15.8,15.9-33,2.6-87,10.6
								c-29.5,4.4-38.9,10.6-55,4.1c-1.3-0.5-26.5-10.9-30.8-32.5c-4.1-21,16.7-26.3,26-63.3C40.6,70.1,33.6,60.8,44.7,41.9z"/>
						</defs>
						<clipPath id="SVGID_00000049940681580202660170000013598903710724287108_">
							<use xlink:href="#SVGID_1_"  style="overflow:visible;"/>
						</clipPath>
						<g style="clip-path:url(#SVGID_00000049940681580202660170000013598903710724287108_);">
							<g>
								<g>
									<g>
										<defs>
											<rect id="SVGID_00000045598134016996132350000010671286132372285090_" x="2.5" y="4.6" width="195.9" height="194.8"/>
										</defs>
										<clipPath id="SVGID_00000083804626828295403830000005403641080795639467_">
											<use xlink:href="#SVGID_00000045598134016996132350000010671286132372285090_"  style="overflow:visible;"/>
										</clipPath>
										<g style="clip-path:url(#SVGID_00000083804626828295403830000005403641080795639467_);">
											
												<image style="overflow:visible;enable-background:new    ;" width="408" height="406" xlink:href="BD52DE4F2C053C03.jpg"  transform="matrix(0.4812 0 0 0.4812 2.3994 4.3206)">
											</image>
										</g>
									</g>
								</g>
							</g>
						</g>
					</g>
				</g>
			</g>
			<path class="st4" d="M44.7,41.9c2.5-4.2,10.4-17.3,26.6-25.4c18.6-9.4,42.3-9.5,60.4,1.2c12.8,7.5,18.9,18.2,28.4,34.9
				c6,10.6,5.1,11.8,16.6,39.1c13.1,31.1,15.9,33.2,16.6,43.2c0.3,3.9,1.9,27.6-12.4,42c-15.8,15.9-33,2.6-87,10.6
				c-29.5,4.4-38.9,10.6-55,4.1c-1.3-0.5-26.5-10.9-30.8-32.5c-4.1-21,16.7-26.3,26-63.3C40.6,70.1,33.6,60.8,44.7,41.9z"/>
		</g>
		<g class="st1">
			<g>
				<g>
					<g>
						<defs>
							<path id="SVGID_00000098912317135487126460000003369361211664159620_" d="M85.9,62.9c-1,0-2,3.1-1.9,5.6
								c0.2,4.4,3.8,6.9,4.9,6.5C90.7,74.2,88,62.8,85.9,62.9z"/>
						</defs>
						<clipPath id="SVGID_00000110433201323698025190000014473297624451327157_">
							<use xlink:href="#SVGID_00000098912317135487126460000003369361211664159620_"  style="overflow:visible;"/>
						</clipPath>
						<g style="clip-path:url(#SVGID_00000110433201323698025190000014473297624451327157_);">
							<g>
								<g>
									<g>
										<defs>
											<rect id="SVGID_00000048491584618304821930000011196965632484491147_" x="79.1" y="57.9" width="15.4" height="22.1"/>
										</defs>
										<clipPath id="SVGID_00000166638245473794511080000008682347655951488167_">
											<use xlink:href="#SVGID_00000048491584618304821930000011196965632484491147_"  style="overflow:visible;"/>
										</clipPath>
										<g style="clip-path:url(#SVGID_00000166638245473794511080000008682347655951488167_);">
											
												<image style="overflow:visible;enable-background:new    ;" width="33" height="47" xlink:href="BD52DE4F2C053C01.jpg"  transform="matrix(0.48 0 0 0.48 78.72 57.6)">
											</image>
										</g>
									</g>
								</g>
							</g>
						</g>
					</g>
				</g>
			</g>
			<path class="st4" d="M85.9,62.9c-1,0-2,3.1-1.9,5.6c0.2,4.4,3.8,6.9,4.9,6.5C90.7,74.2,88,62.8,85.9,62.9z"/>
		</g>
		<path class="st7" d="M123.1,57.8c-1,0.3,0.5,4.5,0.7,6.3c0.4,3,1.9,5.4,2.6,5.3s1-3.6,0-6.6C125.8,60.9,124.2,57.5,123.1,57.8z"/>
	</g>
	<g id="Layer_2_00000162349141760194231410000012683004924616342973_">
		<g class="st1">
			<g>
				<g>
					<defs>
						<path id="SVGID_00000060712385485962071560000012117255076976165277_" d="M17.9,39.6c2.2-16.2,22.9-25.5,30-28.7
							c3.3-1.5,36.7-16,65.6,0c17.6,9.8,13.4,19.8,40,43.7c19.4,17.5,24.4,14.5,31.8,26.2c12.7,20.1,8,44.4,4.4,63.1
							c-5,25.8-8.1,41.6-20,47.5c-24.6,12-51.9-35.7-92.4-27.5c-24.6,5-32.2,26.1-47.5,21.2C15.7,180.6,7.5,157.9,8,139.5
							C8.8,107,36.3,96.3,31.1,70.8C27.8,55.3,16.2,52.3,17.9,39.6z"/>
					</defs>
					<clipPath id="SVGID_00000127741947336798616020000015009017812980559789_">
						<use xlink:href="#SVGID_00000060712385485962071560000012117255076976165277_"  style="overflow:visible;"/>
					</clipPath>
					<g style="clip-path:url(#SVGID_00000127741947336798616020000015009017812980559789_);">
						<g>
							<g>
								<defs>
									<rect id="SVGID_00000091698079046895257420000008786813086974817945_" x="2.9" y="-1.6" width="195.6" height="199.9"/>
								</defs>
								<clipPath id="SVGID_00000029038003094569478400000013380669077911323010_">
									<use xlink:href="#SVGID_00000091698079046895257420000008786813086974817945_"  style="overflow:visible;"/>
								</clipPath>
								<g style="clip-path:url(#SVGID_00000029038003094569478400000013380669077911323010_);">
									
										<image style="overflow:visible;enable-background:new    ;" width="408" height="418" xlink:href="BD52DE4F2C053C07.jpg"  transform="matrix(0.48 0 0 0.48 2.88 -2.08)">
									</image>
								</g>
							</g>
						</g>
					</g>
				</g>
			</g>
			<path class="st10" d="M17.9,39.6c2.2-16.2,22.9-25.5,30-28.7c3.3-1.5,36.7-16,65.6,0c17.6,9.8,13.4,19.8,40,43.7
				c19.4,17.5,24.4,14.5,31.8,26.2c12.7,20.1,8,44.4,4.4,63.1c-5,25.8-8.1,41.6-20,47.5c-24.6,12-51.9-35.7-92.4-27.5
				c-24.6,5-32.2,26.1-47.5,21.2C15.7,180.6,7.5,157.9,8,139.5C8.8,107,36.3,96.3,31.1,70.8C27.8,55.3,16.2,52.3,17.9,39.6z"/>
		</g>
		<g class="st1">
			<g>
				<g>
					<g>
						<defs>
							<path id="SVGID_00000108274456106458124800000003920335151433616293_" d="M85.9,62.9c-1,0-2,3.1-1.9,5.6
								c0.2,4.4,3.8,6.9,4.9,6.5C90.7,74.2,88,62.8,85.9,62.9z"/>
						</defs>
						<clipPath id="SVGID_00000022560285536711416370000016100277937267782542_">
							<use xlink:href="#SVGID_00000108274456106458124800000003920335151433616293_"  style="overflow:visible;"/>
						</clipPath>
						<g style="clip-path:url(#SVGID_00000022560285536711416370000016100277937267782542_);">
							<g>
								<g>
									<g>
										<defs>
											<rect id="SVGID_00000079451988892387354350000016403219819344966018_" x="79.1" y="57.9" width="15.4" height="22.1"/>
										</defs>
										<clipPath id="SVGID_00000069394200055856282010000004262776460507019692_">
											<use xlink:href="#SVGID_00000079451988892387354350000016403219819344966018_"  style="overflow:visible;"/>
										</clipPath>
										<g style="clip-path:url(#SVGID_00000069394200055856282010000004262776460507019692_);">
											
												<image style="overflow:visible;enable-background:new    ;" width="33" height="47" xlink:href="BD52DE4F2C053C01.jpg"  transform="matrix(0.48 0 0 0.48 78.72 57.6)">
											</image>
										</g>
									</g>
								</g>
							</g>
						</g>
					</g>
				</g>
			</g>
			<path class="st4" d="M85.9,62.9c-1,0-2,3.1-1.9,5.6c0.2,4.4,3.8,6.9,4.9,6.5C90.7,74.2,88,62.8,85.9,62.9z"/>
		</g>
		<path class="st7" d="M123.1,57.8c-1,0.3,0.5,4.5,0.7,6.3c0.4,3,1.9,5.4,2.6,5.3s1-3.6,0-6.6C125.8,60.9,124.2,57.5,123.1,57.8z"/>
	</g>
	<g id="Layer_3">
		<g class="st1">
			<g>
				<g>
					<defs>
						<path id="SVGID_00000068659267634552082610000001059920602835922591_" d="M135.2,12.9C117.7,8,98,2.4,79.6,12.5
							C59.4,23.6,53.3,46.9,52.8,49.2c-5,20.4,5.5,29-2.4,44.8c-5.4,10.9-11.5,8.8-22.1,23.6c-4.9,6.8-15.6,21.5-13.2,34.9
							c3.3,18.9,31.3,28,43.8,32c33.8,10.9,99.2,17.7,118.7-18.4c5.3-9.7,0.7-12.1,1.4-46.6c1.1-53,12.4-65,1.5-82
							C171.4,23.1,154.9,18.5,135.2,12.9z"/>
					</defs>
					<clipPath id="SVGID_00000009548415387749881780000003095778702966154661_">
						<use xlink:href="#SVGID_00000068659267634552082610000001059920602835922591_"  style="overflow:visible;"/>
					</clipPath>
					<g style="clip-path:url(#SVGID_00000009548415387749881780000003095778702966154661_);">
						<g>
							<g>
								<defs>
									<rect id="SVGID_00000131364032416935867320000007084694131024069279_" x="9.7" y="1.8" width="180.5" height="196.3"/>
								</defs>
								<clipPath id="SVGID_00000080913329426176083050000008604967562808229540_">
									<use xlink:href="#SVGID_00000131364032416935867320000007084694131024069279_"  style="overflow:visible;"/>
								</clipPath>
								<g style="clip-path:url(#SVGID_00000080913329426176083050000008604967562808229540_);">
									
										<image style="overflow:visible;enable-background:new    ;" width="377" height="410" xlink:href="BD52DE4F2C053C02.jpg"  transform="matrix(0.48 0 0 0.48 9.6 1.76)">
									</image>
								</g>
							</g>
						</g>
					</g>
				</g>
			</g>
			<path class="st10" d="M135.2,12.9C117.7,8,98,2.4,79.6,12.5C59.4,23.6,53.3,46.9,52.8,49.2c-5,20.4,5.5,29-2.4,44.8
				c-5.4,10.9-11.5,8.8-22.1,23.6c-4.9,6.8-15.6,21.5-13.2,34.9c3.3,18.9,31.3,28,43.8,32c33.8,10.9,99.2,17.7,118.7-18.4
				c5.3-9.7,0.7-12.1,1.4-46.6c1.1-53,12.4-65,1.5-82C171.4,23.1,154.9,18.5,135.2,12.9z"/>
		</g>
		<g class="st1">
			<g>
				<g>
					<g>
						<defs>
							<path id="SVGID_00000088119484655102953080000008287063531840293553_" d="M85.9,62.9c-1,0-2,3.1-1.9,5.6
								c0.2,4.4,3.8,6.9,4.9,6.5C90.7,74.2,88,62.8,85.9,62.9z"/>
						</defs>
						<clipPath id="SVGID_00000055672532609556613640000004845665042289655959_">
							<use xlink:href="#SVGID_00000088119484655102953080000008287063531840293553_"  style="overflow:visible;"/>
						</clipPath>
						<g style="clip-path:url(#SVGID_00000055672532609556613640000004845665042289655959_);">
							<g>
								<g>
									<g>
										<defs>
											<rect id="SVGID_00000114058512377628753120000011917069973948680093_" x="79.1" y="57.9" width="15.4" height="22.1"/>
										</defs>
										<clipPath id="SVGID_00000158015742940084648420000005878447239265552823_">
											<use xlink:href="#SVGID_00000114058512377628753120000011917069973948680093_"  style="overflow:visible;"/>
										</clipPath>
										<g style="clip-path:url(#SVGID_00000158015742940084648420000005878447239265552823_);">
											
												<image style="overflow:visible;enable-background:new    ;" width="33" height="47" xlink:href="BD52DE4F2C053C01.jpg"  transform="matrix(0.48 0 0 0.48 78.72 57.6)">
											</image>
										</g>
									</g>
								</g>
							</g>
						</g>
					</g>
				</g>
			</g>
			<path class="st4" d="M85.9,62.9c-1,0-2,3.1-1.9,5.6c0.2,4.4,3.8,6.9,4.9,6.5C90.7,74.2,88,62.8,85.9,62.9z"/>
		</g>
		<path class="st7" d="M123.1,57.8c-1,0.3,0.5,4.5,0.7,6.3c0.4,3,1.9,5.4,2.6,5.3s1-3.6,0-6.6C125.8,60.9,124.2,57.5,123.1,57.8z"/>
	</g>
	<g id="Layer_4">
		<g class="st1">
			<g>
				<g>
					<defs>
						<path id="SVGID_00000145054155048412572420000003112235218632925586_" d="M57.3,13.1C69.5,2.3,90.1,7,117,13.1
							c25.3,5.7,41.5,9.4,52.7,24c18.4,23.9,10.8,60.3,10,63.9c-2.7,12.3-7.1,18.2-7,32.8c0.1,15.2,4.9,19.3,2.9,28.7
							c-2.7,13.4-16.7,26.4-31.6,29.9c-30.9,7.3-50.3-29.7-86.1-22.3c-5.5,1.1-10.1,3.1-16.4,1.2c-13.9-4.2-23.6-23.2-23.4-39.8
							c0.2-20.6,15.4-22.8,26.4-49.2C59.1,46.9,42,26.6,57.3,13.1z"/>
					</defs>
					<clipPath id="SVGID_00000137850040890342481010000002810353487886621574_">
						<use xlink:href="#SVGID_00000145054155048412572420000003112235218632925586_"  style="overflow:visible;"/>
					</clipPath>
					<g style="clip-path:url(#SVGID_00000137850040890342481010000002810353487886621574_);">
						<g>
							<g>
								<defs>
									<rect id="SVGID_00000029026238799035313750000006649929327138538166_" x="13" y="1.6" width="173.9" height="196.7"/>
								</defs>
								<clipPath id="SVGID_00000067226091732766654400000011113637579141623969_">
									<use xlink:href="#SVGID_00000029026238799035313750000006649929327138538166_"  style="overflow:visible;"/>
								</clipPath>
								<g style="clip-path:url(#SVGID_00000067226091732766654400000011113637579141623969_);">
									
										<image style="overflow:visible;enable-background:new    ;" width="363" height="410" xlink:href="BD52DE4F2C053C0F.jpg"  transform="matrix(0.4807 0 0 0.4807 12.8408 1.3854)">
									</image>
								</g>
							</g>
						</g>
					</g>
				</g>
			</g>
			<path class="st10" d="M57.3,13.1C69.5,2.3,90.1,7,117,13.1c25.3,5.7,41.5,9.4,52.7,24c18.4,23.9,10.8,60.3,10,63.9
				c-2.7,12.3-7.1,18.2-7,32.8c0.1,15.2,4.9,19.3,2.9,28.7c-2.7,13.4-16.7,26.4-31.6,29.9c-30.9,7.3-50.3-29.7-86.1-22.3
				c-5.5,1.1-10.1,3.1-16.4,1.2c-13.9-4.2-23.6-23.2-23.4-39.8c0.2-20.6,15.4-22.8,26.4-49.2C59.1,46.9,42,26.6,57.3,13.1z"/>
		</g>
		<g class="st1">
			<g>
				<g>
					<g>
						<defs>
							<path id="SVGID_00000109735697853506801280000000457118158910066304_" d="M85.9,62.9c-1,0-2,3.1-1.9,5.6
								c0.2,4.4,3.8,6.9,4.9,6.5C90.7,74.2,88,62.8,85.9,62.9z"/>
						</defs>
						<clipPath id="SVGID_00000019635866299792962630000004853907677521512339_">
							<use xlink:href="#SVGID_00000109735697853506801280000000457118158910066304_"  style="overflow:visible;"/>
						</clipPath>
						<g style="clip-path:url(#SVGID_00000019635866299792962630000004853907677521512339_);">
							<g>
								<g>
									<g>
										<defs>
											<rect id="SVGID_00000060738978997383745880000007647245392668946586_" x="79.1" y="57.9" width="15.4" height="22.1"/>
										</defs>
										<clipPath id="SVGID_00000147932802372046816030000012331581496920420020_">
											<use xlink:href="#SVGID_00000060738978997383745880000007647245392668946586_"  style="overflow:visible;"/>
										</clipPath>
										<g style="clip-path:url(#SVGID_00000147932802372046816030000012331581496920420020_);">
											
												<image style="overflow:visible;enable-background:new    ;" width="33" height="47" xlink:href="BD52DE4F2C053C01.jpg"  transform="matrix(0.48 0 0 0.48 78.72 57.6)">
											</image>
										</g>
									</g>
								</g>
							</g>
						</g>
					</g>
				</g>
			</g>
			<path class="st4" d="M85.9,62.9c-1,0-2,3.1-1.9,5.6c0.2,4.4,3.8,6.9,4.9,6.5C90.7,74.2,88,62.8,85.9,62.9z"/>
		</g>
		<path class="st7" d="M123.1,57.8c-1,0.3,0.5,4.5,0.7,6.3c0.4,3,1.9,5.4,2.6,5.3s1-3.6,0-6.6C125.8,60.9,124.2,57.5,123.1,57.8z"/>
	</g>
	<g id="Layer_5">
		<g class="st1">
			<g>
				<g>
					<defs>
						<path id="SVGID_00000010312736185575163420000015961448350311653799_" d="M75.2,25.5c2.8-2.7,24-22.7,53.9-18.8
							c25.5,3.3,49.5,23,52.1,44.5c2.8,22.6-20.1,29-22.3,58.6c-2.2,30.6,21,40.7,14.6,57.4c-9.9,26.3-81.9,40.3-124.8,7
							c-5.4-4.2-26.4-19.3-29.9-43.9c-2.7-19.4,6.7-35.2,21.1-59.2C52.4,50.6,65.5,35.4,75.2,25.5z"/>
					</defs>
					<clipPath id="SVGID_00000121973289846633172270000008045636616573626814_">
						<use xlink:href="#SVGID_00000010312736185575163420000015961448350311653799_"  style="overflow:visible;"/>
					</clipPath>
					<g style="clip-path:url(#SVGID_00000121973289846633172270000008045636616573626814_);">
						<g>
							<g>
								<defs>
									<rect id="SVGID_00000032609176598101287680000017215553812098239142_" x="13.5" y="1.2" width="173" height="197.6"/>
								</defs>
								<clipPath id="SVGID_00000176042644821546464110000012475705661703429301_">
									<use xlink:href="#SVGID_00000032609176598101287680000017215553812098239142_"  style="overflow:visible;"/>
								</clipPath>
								<g style="clip-path:url(#SVGID_00000176042644821546464110000012475705661703429301_);">
									
										<image style="overflow:visible;enable-background:new    ;" width="360" height="413" xlink:href="BD52DE4F2C053C05.jpg"  transform="matrix(0.4806 0 0 0.4806 13.5763 0.681)">
									</image>
								</g>
							</g>
						</g>
					</g>
				</g>
			</g>
			<path class="st10" d="M75.2,25.5c2.8-2.7,24-22.7,53.9-18.8c25.5,3.3,49.5,23,52.1,44.5c2.8,22.6-20.1,29-22.3,58.6
				c-2.2,30.6,21,40.7,14.6,57.4c-9.9,26.3-81.9,40.3-124.8,7c-5.4-4.2-26.4-19.3-29.9-43.9c-2.7-19.4,6.7-35.2,21.1-59.2
				C52.4,50.6,65.5,35.4,75.2,25.5z"/>
		</g>
		<g class="st1">
			<g>
				<g>
					<g>
						<defs>
							<path id="SVGID_00000068679461193711006960000015282695549662682536_" d="M85.9,62.9c-1,0-2,3.1-1.9,5.6
								c0.2,4.4,3.8,6.9,4.9,6.5C90.7,74.2,88,62.8,85.9,62.9z"/>
						</defs>
						<clipPath id="SVGID_00000106108765286505994850000005648199203996849570_">
							<use xlink:href="#SVGID_00000068679461193711006960000015282695549662682536_"  style="overflow:visible;"/>
						</clipPath>
						<g style="clip-path:url(#SVGID_00000106108765286505994850000005648199203996849570_);">
							<g>
								<g>
									<g>
										<defs>
											<rect id="SVGID_00000002362886746441909850000001228720821745470093_" x="79.1" y="57.9" width="15.4" height="22.1"/>
										</defs>
										<clipPath id="SVGID_00000003097334264511313390000007501260877890740149_">
											<use xlink:href="#SVGID_00000002362886746441909850000001228720821745470093_"  style="overflow:visible;"/>
										</clipPath>
										<g style="clip-path:url(#SVGID_00000003097334264511313390000007501260877890740149_);">
											
												<image style="overflow:visible;enable-background:new    ;" width="33" height="47" xlink:href="BD52DE4F2C053C01.jpg"  transform="matrix(0.48 0 0 0.48 78.72 57.6)">
											</image>
										</g>
									</g>
								</g>
							</g>
						</g>
					</g>
				</g>
			</g>
			<path class="st4" d="M85.9,62.9c-1,0-2,3.1-1.9,5.6c0.2,4.4,3.8,6.9,4.9,6.5C90.7,74.2,88,62.8,85.9,62.9z"/>
		</g>
		<path class="st7" d="M123.1,57.8c-1,0.3,0.5,4.5,0.7,6.3c0.4,3,1.9,5.4,2.6,5.3s1-3.6,0-6.6C125.8,60.9,124.2,57.5,123.1,57.8z"/>
	</g>
	<g id="Layer_6" class="st1">
		<g>
			<g>
				<g>
					<defs>
						<path id="SVGID_00000085245612602474214250000009531926620122158489_" d="M56.6,35C82.2,4.8,151,7.2,167.7,34.5
							c7.1,11.5-0.7,18.6-2.8,53.7c-3.4,55.9,13.8,77-0.5,91.6c-6.4,6.5-12.1,4.6-59.3,5.6c-55.7,1.1-65.7,4.1-72.4-4.2
							c-8.5-10.4,0.7-23,9.3-67.3C52.9,58.5,44.2,49.5,56.6,35z"/>
					</defs>
					<clipPath id="SVGID_00000106146711934151268730000010119378078939567291_">
						<use xlink:href="#SVGID_00000085245612602474214250000009531926620122158489_"  style="overflow:visible;"/>
					</clipPath>
					<g style="clip-path:url(#SVGID_00000106146711934151268730000010119378078939567291_);">
						<g>
							<g>
								<defs>
									<rect id="SVGID_00000142885407124558882350000004856156614102477487_" x="24.4" y="8.2" width="151.3" height="183.7"/>
								</defs>
								<clipPath id="SVGID_00000085956529738110708190000001556336344517850756_">
									<use xlink:href="#SVGID_00000142885407124558882350000004856156614102477487_"  style="overflow:visible;"/>
								</clipPath>
								<g style="clip-path:url(#SVGID_00000085956529738110708190000001556336344517850756_);">
									
										<image style="overflow:visible;enable-background:new    ;" width="316" height="383" xlink:href="5CFA21715CC1AC5D.jpg"  transform="matrix(0.48 0 0 0.48 24 8)">
									</image>
								</g>
							</g>
						</g>
					</g>
				</g>
			</g>
			<path class="st10" d="M56.6,35C82.2,4.8,151,7.2,167.7,34.5c7.1,11.5-0.7,18.6-2.8,53.7c-3.4,55.9,13.8,77-0.5,91.6
				c-6.4,6.5-12.1,4.6-59.3,5.6c-55.7,1.1-65.7,4.1-72.4-4.2c-8.5-10.4,0.7-23,9.3-67.3C52.9,58.5,44.2,49.5,56.6,35z"/>
		</g>
		<g>
			<g>
				<g>
					<g>
						<defs>
							<path id="SVGID_00000096029667422814780230000004746491065480910247_" d="M85.9,62.9c-1,0-2,3.1-1.9,5.6
								c0.2,4.4,3.8,6.9,4.9,6.5C90.7,74.2,88,62.8,85.9,62.9z"/>
						</defs>
						<clipPath id="SVGID_00000078762002510781773470000001977586693809000882_">
							<use xlink:href="#SVGID_00000096029667422814780230000004746491065480910247_"  style="overflow:visible;"/>
						</clipPath>
						<g style="clip-path:url(#SVGID_00000078762002510781773470000001977586693809000882_);">
							<g>
								<g>
									<g>
										<defs>
											<rect id="SVGID_00000073695378603296887150000009384587474202863757_" x="79.1" y="57.9" width="15.4" height="22.1"/>
										</defs>
										<clipPath id="SVGID_00000080893219505920084930000016832801447937912743_">
											<use xlink:href="#SVGID_00000073695378603296887150000009384587474202863757_"  style="overflow:visible;"/>
										</clipPath>
										<g style="clip-path:url(#SVGID_00000080893219505920084930000016832801447937912743_);">
											
												<image style="overflow:visible;enable-background:new    ;" width="33" height="47" xlink:href="BD52DE4F2C053C01.jpg"  transform="matrix(0.48 0 0 0.48 78.72 57.6)">
											</image>
										</g>
									</g>
								</g>
							</g>
						</g>
					</g>
				</g>
			</g>
			<path class="st4" d="M85.9,62.9c-1,0-2,3.1-1.9,5.6c0.2,4.4,3.8,6.9,4.9,6.5C90.7,74.2,88,62.8,85.9,62.9z"/>
		</g>
		<path class="st29" d="M123.1,57.8c-1,0.3,0.5,4.5,0.7,6.3c0.4,3,1.9,5.4,2.6,5.3s1-3.6,0-6.6C125.8,60.9,124.2,57.5,123.1,57.8z"
			/>
	</g>
</g>
<g id="Layer_2">
	<g>
		<g>
			<defs>
				<path id="SVGID_00000097492148090555453320000007151559220833063074_" d="M53.2,20C60,4,107.3,5.9,142.3,20.7
					c14.4,6.1,26.2,11.1,32.5,23.3c7.3,14.1,0.2,24.2,0,58c-0.2,30.4,5.5,30.3,2.1,41.7c-9.1,30.5-56.9,56.5-98.3,44.6
					c-24.9-7.2-38.3-25.4-41.7-30.4c-17.2-25.1-21.1-63.5-4.2-80.6c11-11.2,24.9-7.3,29.7-18.4C68.5,44.6,48.3,31.6,53.2,20z"/>
			</defs>
			<clipPath id="SVGID_00000109745882191689845860000004095094687639957670_">
				<use xlink:href="#SVGID_00000097492148090555453320000007151559220833063074_"  style="overflow:visible;"/>
			</clipPath>
			<g style="clip-path:url(#SVGID_00000109745882191689845860000004095094687639957670_);">
				<g>
					<defs>
						<rect id="SVGID_00000098210826186533905920000017187715612730641797_" x="16.9" y="3.8" width="166.2" height="192.4"/>
					</defs>
					<clipPath id="SVGID_00000045611181438388513290000014237304144829564056_">
						<use xlink:href="#SVGID_00000098210826186533905920000017187715612730641797_"  style="overflow:visible;"/>
					</clipPath>
					<g style="clip-path:url(#SVGID_00000045611181438388513290000014237304144829564056_);">
						
							<image style="overflow:visible;" width="347" height="402" xlink:href="5CFA21715CC1AC55.jpg"  transform="matrix(0.48 0 0 0.48 16.8 3.68)">
						</image>
					</g>
				</g>
			</g>
		</g>
		<path class="st10" d="M53.2,20C60,4,107.3,5.9,142.3,20.7c14.4,6.1,26.2,11.1,32.5,23.3c7.3,14.1,0.2,24.2,0,58
			c-0.2,30.4,5.5,30.3,2.1,41.7c-9.1,30.5-56.9,56.5-98.3,44.6c-24.9-7.2-38.3-25.4-41.7-30.4c-17.2-25.1-21.1-63.5-4.2-80.6
			c11-11.2,24.9-7.3,29.7-18.4C68.5,44.6,48.3,31.6,53.2,20z"/>
	</g>
	<g>
		<g>
			<g>
				<g>
					<defs>
						<path id="SVGID_00000065771267374803095770000009114830045974238860_" d="M85.9,62.9c-1,0-2,3.1-1.9,5.6
							c0.2,4.4,3.8,6.9,4.9,6.5C90.7,74.2,88,62.8,85.9,62.9z"/>
					</defs>
					<clipPath id="SVGID_00000168804604366252452090000010986074464645885850_">
						<use xlink:href="#SVGID_00000065771267374803095770000009114830045974238860_"  style="overflow:visible;"/>
					</clipPath>
					<g style="clip-path:url(#SVGID_00000168804604366252452090000010986074464645885850_);">
						<g>
							<g>
								<g>
									<defs>
										<rect id="SVGID_00000064355130590056361960000002510316978113075335_" x="79.1" y="57.9" width="15.4" height="22.1"/>
									</defs>
									<clipPath id="SVGID_00000001630626234525395930000004947874192834231203_">
										<use xlink:href="#SVGID_00000064355130590056361960000002510316978113075335_"  style="overflow:visible;"/>
									</clipPath>
									<g style="clip-path:url(#SVGID_00000001630626234525395930000004947874192834231203_);">
										
											<image style="overflow:visible;enable-background:new    ;" width="33" height="47" xlink:href="BD52DE4F2C053C01.jpg"  transform="matrix(0.48 0 0 0.48 78.72 57.6)">
										</image>
									</g>
								</g>
							</g>
						</g>
					</g>
				</g>
			</g>
		</g>
		<path class="st4" d="M85.9,62.9c-1,0-2,3.1-1.9,5.6c0.2,4.4,3.8,6.9,4.9,6.5C90.7,74.2,88,62.8,85.9,62.9z"/>
	</g>
	<path class="st29" d="M123.1,57.8c-1,0.3,0.5,4.5,0.7,6.3c0.4,3,1.9,5.4,2.6,5.3s1-3.6,0-6.6C125.8,60.9,124.2,57.5,123.1,57.8z"/>
</g>
</svg>
