<?xml version="1.0" encoding="utf-8"?>
<!-- Generator: Adobe Illustrator 27.4.0, SVG Export Plug-In . SVG Version: 6.00 Build 0)  -->
<svg version="1.1" xmlns="http://www.w3.org/2000/svg" xmlns:xlink="http://www.w3.org/1999/xlink" x="0px" y="0px"
	 viewBox="0 0 200 200" style="enable-background:new 0 0 200 200;" xml:space="preserve">
<style type="text/css">
	.st0{display:none;}
	.st1{display:inline;}
	.st2{clip-path:url(#SVGID_00000133499307297839269330000016063465472436280501_);}
	.st3{clip-path:url(#SVGID_00000160172264167394448780000014693450323098762898_);}
	.st4{fill:none;stroke:#231F20;stroke-width:5;stroke-miterlimit:10;}
	.st5{clip-path:url(#SVGID_00000053516543564288989010000005139391282255213462_);}
	.st6{clip-path:url(#SVGID_00000098899906486711233000000000430963947731095210_);}
	.st7{display:inline;fill:#FFFFFF;stroke:#231F20;stroke-width:5;stroke-miterlimit:10;}
	.st8{clip-path:url(#SVGID_00000178198504547653493220000013978611492532339602_);}
	.st9{fill:none;stroke:#000000;stroke-width:5;stroke-miterlimit:10;}
	.st10{clip-path:url(#SVGID_00000057831824658086381470000005557645416172958854_);}
	.st11{clip-path:url(#SVGID_00000148631896152230544030000007781181359635164289_);}
	.st12{clip-path:url(#SVGID_00000015317434313513437270000003967664313197008272_);}
	.st13{clip-path:url(#SVGID_00000079483746912566400310000003769555673925371777_);}
	.st14{clip-path:url(#SVGID_00000080176500549605230970000013555683189477067910_);}
	.st15{clip-path:url(#SVGID_00000178902991930099758070000000792025044411564165_);}
	.st16{clip-path:url(#SVGID_00000010289807763650097640000000838339783061682578_);}
	.st17{clip-path:url(#SVGID_00000099660186555196337560000008658544754931473561_);}
	.st18{clip-path:url(#SVGID_00000009585089373267163310000010962428702539316671_);}
	.st19{clip-path:url(#SVGID_00000023255304268322660640000009091081106780636330_);}
	.st20{clip-path:url(#SVGID_00000169558371304076246170000012652210130768412581_);}
	.st21{clip-path:url(#SVGID_00000182488134600912616640000007265490952083720874_);}
	.st22{clip-path:url(#SVGID_00000087401683162264243610000002261553130188853683_);}
	.st23{clip-path:url(#SVGID_00000026146244605969690550000004218978505505128122_);}
	.st24{fill:#FFFFFF;stroke:#231F20;stroke-width:5;stroke-miterlimit:10;}
</style>
<g id="Layer_1" class="st0">
	<g class="st1">
		<g>
			<g>
				<defs>
					<path id="SVGID_1_" d="M44.7,41.9c2.5-4.2,10.4-17.3,26.6-25.4c18.6-9.4,42.3-9.5,60.4,1.2c12.8,7.5,18.9,18.2,28.4,34.9
						c6,10.6,5.1,11.8,16.6,39.1c13.1,31.1,15.9,33.2,16.6,43.2c0.3,3.9,1.9,27.6-12.4,42c-15.8,15.9-33,2.6-87,10.6
						c-29.5,4.4-38.9,10.6-55,4.1c-1.3-0.5-26.5-10.9-30.8-32.5c-4.1-21,16.7-26.3,26-63.3C40.6,70.1,33.6,60.8,44.7,41.9z"/>
				</defs>
				<clipPath id="SVGID_00000087406358006841880750000008317615986800921992_">
					<use xlink:href="#SVGID_1_"  style="overflow:visible;"/>
				</clipPath>
				<g style="clip-path:url(#SVGID_00000087406358006841880750000008317615986800921992_);">
					<g>
						<g>
							<defs>
								<rect id="SVGID_00000073690384096159107970000004284071437304370096_" x="2.5" y="4.6" width="195.9" height="194.8"/>
							</defs>
							<clipPath id="SVGID_00000121972316311271000790000015146678762677460098_">
								<use xlink:href="#SVGID_00000073690384096159107970000004284071437304370096_"  style="overflow:visible;"/>
							</clipPath>
							<g style="clip-path:url(#SVGID_00000121972316311271000790000015146678762677460098_);">
								
									<image style="overflow:visible;enable-background:new    ;" width="408" height="406" xlink:href="BD52DE4F2C053C03.jpg"  transform="matrix(0.4812 0 0 0.4812 2.3994 4.3206)">
								</image>
							</g>
						</g>
					</g>
				</g>
			</g>
		</g>
		<path class="st4" d="M44.7,41.9c2.5-4.2,10.4-17.3,26.6-25.4c18.6-9.4,42.3-9.5,60.4,1.2c12.8,7.5,18.9,18.2,28.4,34.9
			c6,10.6,5.1,11.8,16.6,39.1c13.1,31.1,15.9,33.2,16.6,43.2c0.3,3.9,1.9,27.6-12.4,42c-15.8,15.9-33,2.6-87,10.6
			c-29.5,4.4-38.9,10.6-55,4.1c-1.3-0.5-26.5-10.9-30.8-32.5c-4.1-21,16.7-26.3,26-63.3C40.6,70.1,33.6,60.8,44.7,41.9z"/>
	</g>
	<g class="st1">
		<g>
			<g>
				<defs>
					<path id="SVGID_00000142175152103866568630000003926814930932933552_" d="M85.9,62.9c-1,0-2,3.1-1.9,5.6
						c0.2,4.4,3.8,6.9,4.9,6.5C90.7,74.2,88,62.8,85.9,62.9z"/>
				</defs>
				<clipPath id="SVGID_00000173123721078122086980000005327916418942490298_">
					<use xlink:href="#SVGID_00000142175152103866568630000003926814930932933552_"  style="overflow:visible;"/>
				</clipPath>
				<g style="clip-path:url(#SVGID_00000173123721078122086980000005327916418942490298_);">
					<g>
						<g>
							<defs>
								<rect id="SVGID_00000000216213648015496350000012022732620942437039_" x="79.1" y="57.9" width="15.4" height="22.1"/>
							</defs>
							<clipPath id="SVGID_00000140696894915537836890000010620785707904320942_">
								<use xlink:href="#SVGID_00000000216213648015496350000012022732620942437039_"  style="overflow:visible;"/>
							</clipPath>
							<g style="clip-path:url(#SVGID_00000140696894915537836890000010620785707904320942_);">
								
									<image style="overflow:visible;enable-background:new    ;" width="33" height="47" xlink:href="BD52DE4F2C053C01.jpg"  transform="matrix(0.48 0 0 0.48 78.72 57.6)">
								</image>
							</g>
						</g>
					</g>
				</g>
			</g>
		</g>
		<path class="st4" d="M85.9,62.9c-1,0-2,3.1-1.9,5.6c0.2,4.4,3.8,6.9,4.9,6.5C90.7,74.2,88,62.8,85.9,62.9z"/>
	</g>
	<path class="st7" d="M123.1,57.8c-1,0.3,0.5,4.5,0.7,6.3c0.4,3,1.9,5.4,2.6,5.3c0.7-0.1,1-3.6,0-6.6
		C125.8,60.9,124.2,57.5,123.1,57.8z"/>
</g>
<g id="Layer_2" class="st0">
	<g class="st1">
		<g>
			<defs>
				<path id="SVGID_00000068678341407590382280000015593706822408248452_" d="M17.9,39.6c2.2-16.2,22.9-25.5,30-28.7
					c3.3-1.5,36.7-16,65.6,0c17.6,9.8,13.4,19.8,40,43.7c19.4,17.5,24.4,14.5,31.8,26.2c12.7,20.1,8,44.4,4.4,63.1
					c-5,25.8-8.1,41.6-20,47.5c-24.6,12-51.9-35.7-92.4-27.5c-24.6,5-32.2,26.1-47.5,21.2C15.7,180.6,7.5,157.9,8,139.5
					C8.8,107,36.3,96.3,31.1,70.8C27.8,55.3,16.2,52.3,17.9,39.6z"/>
			</defs>
			<clipPath id="SVGID_00000039128630836912133740000013876262282593099400_">
				<use xlink:href="#SVGID_00000068678341407590382280000015593706822408248452_"  style="overflow:visible;"/>
			</clipPath>
			<g style="clip-path:url(#SVGID_00000039128630836912133740000013876262282593099400_);">
				<g>
					<defs>
						<rect id="SVGID_00000121964293790277074790000008197473376344976303_" x="2.9" y="-1.6" width="195.6" height="199.9"/>
					</defs>
					<clipPath id="SVGID_00000029038709024825527580000018190988220645371291_">
						<use xlink:href="#SVGID_00000121964293790277074790000008197473376344976303_"  style="overflow:visible;"/>
					</clipPath>
					<g style="clip-path:url(#SVGID_00000029038709024825527580000018190988220645371291_);">
						
							<image style="overflow:visible;" width="408" height="418" xlink:href="BD52DE4F2C053C07.jpg"  transform="matrix(0.48 0 0 0.48 2.88 -2.08)">
						</image>
					</g>
				</g>
			</g>
		</g>
		<path class="st9" d="M17.9,39.6c2.2-16.2,22.9-25.5,30-28.7c3.3-1.5,36.7-16,65.6,0c17.6,9.8,13.4,19.8,40,43.7
			c19.4,17.5,24.4,14.5,31.8,26.2c12.7,20.1,8,44.4,4.4,63.1c-5,25.8-8.1,41.6-20,47.5c-24.6,12-51.9-35.7-92.4-27.5
			c-24.6,5-32.2,26.1-47.5,21.2C15.7,180.6,7.5,157.9,8,139.5C8.8,107,36.3,96.3,31.1,70.8C27.8,55.3,16.2,52.3,17.9,39.6z"/>
	</g>
	<g class="st1">
		<g>
			<g>
				<defs>
					<path id="SVGID_00000012440761354241462040000014094269798887377846_" d="M85.9,62.9c-1,0-2,3.1-1.9,5.6
						c0.2,4.4,3.8,6.9,4.9,6.5C90.7,74.2,88,62.8,85.9,62.9z"/>
				</defs>
				<clipPath id="SVGID_00000058574998776606858940000017122907333386350220_">
					<use xlink:href="#SVGID_00000012440761354241462040000014094269798887377846_"  style="overflow:visible;"/>
				</clipPath>
				<g style="clip-path:url(#SVGID_00000058574998776606858940000017122907333386350220_);">
					<g>
						<g>
							<defs>
								<rect id="SVGID_00000097483229035305526840000000129130758567136954_" x="79.1" y="57.9" width="15.4" height="22.1"/>
							</defs>
							<clipPath id="SVGID_00000078740190955282824050000002272207476840425147_">
								<use xlink:href="#SVGID_00000097483229035305526840000000129130758567136954_"  style="overflow:visible;"/>
							</clipPath>
							<g style="clip-path:url(#SVGID_00000078740190955282824050000002272207476840425147_);">
								
									<image style="overflow:visible;enable-background:new    ;" width="33" height="47" xlink:href="BD52DE4F2C053C01.jpg"  transform="matrix(0.48 0 0 0.48 78.72 57.6)">
								</image>
							</g>
						</g>
					</g>
				</g>
			</g>
		</g>
		<path class="st4" d="M85.9,62.9c-1,0-2,3.1-1.9,5.6c0.2,4.4,3.8,6.9,4.9,6.5C90.7,74.2,88,62.8,85.9,62.9z"/>
	</g>
	<path class="st7" d="M123.1,57.8c-1,0.3,0.5,4.5,0.7,6.3c0.4,3,1.9,5.4,2.6,5.3c0.7-0.1,1-3.6,0-6.6
		C125.8,60.9,124.2,57.5,123.1,57.8z"/>
</g>
<g id="Layer_3" class="st0">
	<g class="st1">
		<g>
			<defs>
				<path id="SVGID_00000127722444830303383130000000816634338681427608_" d="M135.2,12.9C117.7,8,98,2.4,79.6,12.5
					C59.4,23.6,53.3,46.9,52.8,49.2c-5,20.4,5.5,29-2.4,44.8c-5.4,10.9-11.5,8.8-22.1,23.6c-4.9,6.8-15.6,21.5-13.2,34.9
					c3.3,18.9,31.3,28,43.8,32c33.8,10.9,99.2,17.7,118.7-18.4c5.3-9.7,0.7-12.1,1.4-46.6c1.1-53,12.4-65,1.5-82
					C171.4,23.1,154.9,18.5,135.2,12.9z"/>
			</defs>
			<clipPath id="SVGID_00000124843472381698051340000003501804007708264102_">
				<use xlink:href="#SVGID_00000127722444830303383130000000816634338681427608_"  style="overflow:visible;"/>
			</clipPath>
			<g style="clip-path:url(#SVGID_00000124843472381698051340000003501804007708264102_);">
				<g>
					<defs>
						<rect id="SVGID_00000146470740004112669070000013476661653552396469_" x="9.7" y="1.8" width="180.5" height="196.3"/>
					</defs>
					<clipPath id="SVGID_00000001622389330498926410000007429844819961869957_">
						<use xlink:href="#SVGID_00000146470740004112669070000013476661653552396469_"  style="overflow:visible;"/>
					</clipPath>
					<g style="clip-path:url(#SVGID_00000001622389330498926410000007429844819961869957_);">
						
							<image style="overflow:visible;" width="377" height="410" xlink:href="BD52DE4F2C053C02.jpg"  transform="matrix(0.48 0 0 0.48 9.6 1.76)">
						</image>
					</g>
				</g>
			</g>
		</g>
		<path class="st9" d="M135.2,12.9C117.7,8,98,2.4,79.6,12.5C59.4,23.6,53.3,46.9,52.8,49.2c-5,20.4,5.5,29-2.4,44.8
			c-5.4,10.9-11.5,8.8-22.1,23.6c-4.9,6.8-15.6,21.5-13.2,34.9c3.3,18.9,31.3,28,43.8,32c33.8,10.9,99.2,17.7,118.7-18.4
			c5.3-9.7,0.7-12.1,1.4-46.6c1.1-53,12.4-65,1.5-82C171.4,23.1,154.9,18.5,135.2,12.9z"/>
	</g>
	<g class="st1">
		<g>
			<g>
				<defs>
					<path id="SVGID_00000112629336793322649600000006630581398893352116_" d="M85.9,62.9c-1,0-2,3.1-1.9,5.6
						c0.2,4.4,3.8,6.9,4.9,6.5C90.7,74.2,88,62.8,85.9,62.9z"/>
				</defs>
				<clipPath id="SVGID_00000182497801639014550740000009482189183737978518_">
					<use xlink:href="#SVGID_00000112629336793322649600000006630581398893352116_"  style="overflow:visible;"/>
				</clipPath>
				<g style="clip-path:url(#SVGID_00000182497801639014550740000009482189183737978518_);">
					<g>
						<g>
							<defs>
								<rect id="SVGID_00000122703134470196611570000005578293847980692402_" x="79.1" y="57.9" width="15.4" height="22.1"/>
							</defs>
							<clipPath id="SVGID_00000098181424389705172730000003927042074473064372_">
								<use xlink:href="#SVGID_00000122703134470196611570000005578293847980692402_"  style="overflow:visible;"/>
							</clipPath>
							<g style="clip-path:url(#SVGID_00000098181424389705172730000003927042074473064372_);">
								
									<image style="overflow:visible;enable-background:new    ;" width="33" height="47" xlink:href="BD52DE4F2C053C01.jpg"  transform="matrix(0.48 0 0 0.48 78.72 57.6)">
								</image>
							</g>
						</g>
					</g>
				</g>
			</g>
		</g>
		<path class="st4" d="M85.9,62.9c-1,0-2,3.1-1.9,5.6c0.2,4.4,3.8,6.9,4.9,6.5C90.7,74.2,88,62.8,85.9,62.9z"/>
	</g>
	<path class="st7" d="M123.1,57.8c-1,0.3,0.5,4.5,0.7,6.3c0.4,3,1.9,5.4,2.6,5.3c0.7-0.1,1-3.6,0-6.6
		C125.8,60.9,124.2,57.5,123.1,57.8z"/>
</g>
<g id="Layer_4" class="st0">
	<g class="st1">
		<g>
			<defs>
				<path id="SVGID_00000019642333532888477240000000010275893352963469_" d="M57.3,13.1C69.5,2.3,90.1,7,117,13.1
					c25.3,5.7,41.5,9.4,52.7,24c18.4,23.9,10.8,60.3,10,63.9c-2.7,12.3-7.1,18.2-7,32.8c0.1,15.2,4.9,19.3,2.9,28.7
					c-2.7,13.4-16.7,26.4-31.6,29.9c-30.9,7.3-50.3-29.7-86.1-22.3c-5.5,1.1-10.1,3.1-16.4,1.2c-13.9-4.2-23.6-23.2-23.4-39.8
					c0.2-20.6,15.4-22.8,26.4-49.2C59.1,46.9,42,26.6,57.3,13.1z"/>
			</defs>
			<clipPath id="SVGID_00000180355035022595069890000016926018578229363869_">
				<use xlink:href="#SVGID_00000019642333532888477240000000010275893352963469_"  style="overflow:visible;"/>
			</clipPath>
			<g style="clip-path:url(#SVGID_00000180355035022595069890000016926018578229363869_);">
				<g>
					<defs>
						<rect id="SVGID_00000118365914632227143630000010408817862231917726_" x="13" y="1.6" width="173.9" height="196.7"/>
					</defs>
					<clipPath id="SVGID_00000097467657593384509920000010480200326851182490_">
						<use xlink:href="#SVGID_00000118365914632227143630000010408817862231917726_"  style="overflow:visible;"/>
					</clipPath>
					<g style="clip-path:url(#SVGID_00000097467657593384509920000010480200326851182490_);">
						
							<image style="overflow:visible;" width="363" height="411" xlink:href="BD52DE4F2C053C0F.jpg"  transform="matrix(0.48 0 0 0.48 12.96 1.28)">
						</image>
					</g>
				</g>
			</g>
		</g>
		<path class="st9" d="M57.3,13.1C69.5,2.3,90.1,7,117,13.1c25.3,5.7,41.5,9.4,52.7,24c18.4,23.9,10.8,60.3,10,63.9
			c-2.7,12.3-7.1,18.2-7,32.8c0.1,15.2,4.9,19.3,2.9,28.7c-2.7,13.4-16.7,26.4-31.6,29.9c-30.9,7.3-50.3-29.7-86.1-22.3
			c-5.5,1.1-10.1,3.1-16.4,1.2c-13.9-4.2-23.6-23.2-23.4-39.8c0.2-20.6,15.4-22.8,26.4-49.2C59.1,46.9,42,26.6,57.3,13.1z"/>
	</g>
	<g class="st1">
		<g>
			<g>
				<defs>
					<path id="SVGID_00000109746369984279572880000000790941870111999618_" d="M85.9,62.9c-1,0-2,3.1-1.9,5.6
						c0.2,4.4,3.8,6.9,4.9,6.5C90.7,74.2,88,62.8,85.9,62.9z"/>
				</defs>
				<clipPath id="SVGID_00000041268177603459773900000010776119726707365536_">
					<use xlink:href="#SVGID_00000109746369984279572880000000790941870111999618_"  style="overflow:visible;"/>
				</clipPath>
				<g style="clip-path:url(#SVGID_00000041268177603459773900000010776119726707365536_);">
					<g>
						<g>
							<defs>
								<rect id="SVGID_00000029034040848880920610000001788386868022811822_" x="79.1" y="57.9" width="15.4" height="22.1"/>
							</defs>
							<clipPath id="SVGID_00000109020357962881872520000012412411120376180656_">
								<use xlink:href="#SVGID_00000029034040848880920610000001788386868022811822_"  style="overflow:visible;"/>
							</clipPath>
							<g style="clip-path:url(#SVGID_00000109020357962881872520000012412411120376180656_);">
								
									<image style="overflow:visible;enable-background:new    ;" width="33" height="47" xlink:href="BD52DE4F2C053C01.jpg"  transform="matrix(0.48 0 0 0.48 78.72 57.6)">
								</image>
							</g>
						</g>
					</g>
				</g>
			</g>
		</g>
		<path class="st4" d="M85.9,62.9c-1,0-2,3.1-1.9,5.6c0.2,4.4,3.8,6.9,4.9,6.5C90.7,74.2,88,62.8,85.9,62.9z"/>
	</g>
	<path class="st7" d="M123.1,57.8c-1,0.3,0.5,4.5,0.7,6.3c0.4,3,1.9,5.4,2.6,5.3c0.7-0.1,1-3.6,0-6.6
		C125.8,60.9,124.2,57.5,123.1,57.8z"/>
</g>
<g id="Layer_5" class="st0">
	<g class="st1">
		<g>
			<defs>
				<path id="SVGID_00000014624310990814825490000011537160339419532978_" d="M75.2,25.5c2.8-2.7,24-22.7,53.9-18.8
					c25.5,3.3,49.5,23,52.1,44.5c2.8,22.6-20.1,29-22.3,58.6c-2.2,30.6,21,40.7,14.6,57.4c-9.9,26.3-81.9,40.3-124.8,7
					c-5.4-4.2-26.4-19.3-29.9-43.9c-2.7-19.4,6.7-35.2,21.1-59.2C52.4,50.6,65.5,35.4,75.2,25.5z"/>
			</defs>
			<clipPath id="SVGID_00000163072465473053890830000000558742589283604888_">
				<use xlink:href="#SVGID_00000014624310990814825490000011537160339419532978_"  style="overflow:visible;"/>
			</clipPath>
			<g style="clip-path:url(#SVGID_00000163072465473053890830000000558742589283604888_);">
				<g>
					<defs>
						<rect id="SVGID_00000152236321350077922310000011746651113400072367_" x="13.5" y="1.2" width="173" height="197.6"/>
					</defs>
					<clipPath id="SVGID_00000065768128353742604820000006869778505176303517_">
						<use xlink:href="#SVGID_00000152236321350077922310000011746651113400072367_"  style="overflow:visible;"/>
					</clipPath>
					<g style="clip-path:url(#SVGID_00000065768128353742604820000006869778505176303517_);">
						
							<image style="overflow:visible;" width="361" height="413" xlink:href="BD52DE4F2C053C05.jpg"  transform="matrix(0.48 0 0 0.48 13.44 0.8)">
						</image>
					</g>
				</g>
			</g>
		</g>
		<path class="st9" d="M75.2,25.5c2.8-2.7,24-22.7,53.9-18.8c25.5,3.3,49.5,23,52.1,44.5c2.8,22.6-20.1,29-22.3,58.6
			c-2.2,30.6,21,40.7,14.6,57.4c-9.9,26.3-81.9,40.3-124.8,7c-5.4-4.2-26.4-19.3-29.9-43.9c-2.7-19.4,6.7-35.2,21.1-59.2
			C52.4,50.6,65.5,35.4,75.2,25.5z"/>
	</g>
	<g class="st1">
		<g>
			<g>
				<defs>
					<path id="SVGID_00000121248185484497462850000015378164874862494623_" d="M85.9,62.9c-1,0-2,3.1-1.9,5.6
						c0.2,4.4,3.8,6.9,4.9,6.5C90.7,74.2,88,62.8,85.9,62.9z"/>
				</defs>
				<clipPath id="SVGID_00000134239482354456945030000009783818594190058123_">
					<use xlink:href="#SVGID_00000121248185484497462850000015378164874862494623_"  style="overflow:visible;"/>
				</clipPath>
				<g style="clip-path:url(#SVGID_00000134239482354456945030000009783818594190058123_);">
					<g>
						<g>
							<defs>
								<rect id="SVGID_00000062185397286480154800000001813155593043556743_" x="79.1" y="57.9" width="15.4" height="22.1"/>
							</defs>
							<clipPath id="SVGID_00000134251182761267252670000014039679844749984385_">
								<use xlink:href="#SVGID_00000062185397286480154800000001813155593043556743_"  style="overflow:visible;"/>
							</clipPath>
							<g style="clip-path:url(#SVGID_00000134251182761267252670000014039679844749984385_);">
								
									<image style="overflow:visible;enable-background:new    ;" width="33" height="47" xlink:href="BD52DE4F2C053C01.jpg"  transform="matrix(0.48 0 0 0.48 78.72 57.6)">
								</image>
							</g>
						</g>
					</g>
				</g>
			</g>
		</g>
		<path class="st4" d="M85.9,62.9c-1,0-2,3.1-1.9,5.6c0.2,4.4,3.8,6.9,4.9,6.5C90.7,74.2,88,62.8,85.9,62.9z"/>
	</g>
	<path class="st7" d="M123.1,57.8c-1,0.3,0.5,4.5,0.7,6.3c0.4,3,1.9,5.4,2.6,5.3c0.7-0.1,1-3.6,0-6.6
		C125.8,60.9,124.2,57.5,123.1,57.8z"/>
</g>
<g id="Layer_6">
	<g>
		<g>
			<defs>
				<path id="SVGID_00000155865947984976213890000001296791083082685095_" d="M56.6,35C82.2,4.8,151,7.2,167.7,34.5
					c7.1,11.5-0.7,18.6-2.8,53.7c-3.4,55.9,13.8,77-0.5,91.6c-6.4,6.5-12.1,4.6-59.3,5.6c-55.7,1.1-65.7,4.1-72.4-4.2
					c-8.5-10.4,0.7-23,9.3-67.3C52.9,58.5,44.2,49.5,56.6,35z"/>
			</defs>
			<clipPath id="SVGID_00000094600676031065028240000009795393806642761132_">
				<use xlink:href="#SVGID_00000155865947984976213890000001296791083082685095_"  style="overflow:visible;"/>
			</clipPath>
			<g style="clip-path:url(#SVGID_00000094600676031065028240000009795393806642761132_);">
				<g>
					<defs>
						<rect id="SVGID_00000161607527061422081900000007289660858911761583_" x="24.4" y="8.2" width="151.3" height="183.7"/>
					</defs>
					<clipPath id="SVGID_00000130634647458165749590000008033040451909175686_">
						<use xlink:href="#SVGID_00000161607527061422081900000007289660858911761583_"  style="overflow:visible;"/>
					</clipPath>
					<g style="clip-path:url(#SVGID_00000130634647458165749590000008033040451909175686_);">
						
							<image style="overflow:visible;" width="316" height="383" xlink:href="5CFA21715CC1AC5D.jpg"  transform="matrix(0.48 0 0 0.48 24 8)">
						</image>
					</g>
				</g>
			</g>
		</g>
		<path class="st9" d="M56.6,35C82.2,4.8,151,7.2,167.7,34.5c7.1,11.5-0.7,18.6-2.8,53.7c-3.4,55.9,13.8,77-0.5,91.6
			c-6.4,6.5-12.1,4.6-59.3,5.6c-55.7,1.1-65.7,4.1-72.4-4.2c-8.5-10.4,0.7-23,9.3-67.3C52.9,58.5,44.2,49.5,56.6,35z"/>
	</g>
	<g>
		<g>
			<g>
				<defs>
					<path id="SVGID_00000155848601548156288540000009397092921972965273_" d="M85.9,62.9c-1,0-2,3.1-1.9,5.6
						c0.2,4.4,3.8,6.9,4.9,6.5C90.7,74.2,88,62.8,85.9,62.9z"/>
				</defs>
				<clipPath id="SVGID_00000091725290295599330980000016627759017233503128_">
					<use xlink:href="#SVGID_00000155848601548156288540000009397092921972965273_"  style="overflow:visible;"/>
				</clipPath>
				<g style="clip-path:url(#SVGID_00000091725290295599330980000016627759017233503128_);">
					<g>
						<g>
							<defs>
								<rect id="SVGID_00000021077444617347050110000016358129231617436805_" x="79.1" y="57.9" width="15.4" height="22.1"/>
							</defs>
							<clipPath id="SVGID_00000055681417973055374940000013383319966621711783_">
								<use xlink:href="#SVGID_00000021077444617347050110000016358129231617436805_"  style="overflow:visible;"/>
							</clipPath>
							<g style="clip-path:url(#SVGID_00000055681417973055374940000013383319966621711783_);">
								
									<image style="overflow:visible;enable-background:new    ;" width="33" height="47" xlink:href="BD52DE4F2C053C01.jpg"  transform="matrix(0.48 0 0 0.48 78.72 57.6)">
								</image>
							</g>
						</g>
					</g>
				</g>
			</g>
		</g>
		<path class="st4" d="M85.9,62.9c-1,0-2,3.1-1.9,5.6c0.2,4.4,3.8,6.9,4.9,6.5C90.7,74.2,88,62.8,85.9,62.9z"/>
	</g>
	<path class="st24" d="M123.1,57.8c-1,0.3,0.5,4.5,0.7,6.3c0.4,3,1.9,5.4,2.6,5.3c0.7-0.1,1-3.6,0-6.6
		C125.8,60.9,124.2,57.5,123.1,57.8z"/>
</g>
</svg>
